<svg xmlns="http://www.w3.org/2000/svg" viewBox="0 0 307.32 91.64"><defs><style>.cls-1{fill:#f90;}.cls-2{fill:none;}.cls-3{fill:#030303;}</style></defs><title>Asset 1</title><g id="Layer_2" data-name="Layer 2"><g id="Layer_1-2" data-name="Layer 1"><path d="M116.4,63.57h-3.79V43.62h-6.82V40.37h17.44v3.25H116.4Z"/><path d="M141.82,63.57h-3.75V52.78a4.72,4.72,0,0,0-.82-3,3.16,3.16,0,0,0-2.59-1,4.12,4.12,0,0,0-3.45,1.4q-1.1,1.4-1.1,4.71v8.71h-3.73V38.88h3.73v6.27a29.25,29.25,0,0,1-.19,3.22h.24a5.17,5.17,0,0,1,2.12-2,6.83,6.83,0,0,1,3.17-.7q6.38,0,6.38,6.43Z"/><path d="M155.92,45.7a8.94,8.94,0,0,1,1.86.16l-.37,3.47a7.05,7.05,0,0,0-1.65-.19,4.78,4.78,0,0,0-3.63,1.46,5.28,5.28,0,0,0-1.39,3.79v9.17H147V46h2.92l.49,3.09h.19a6.94,6.94,0,0,1,2.28-2.49A5.41,5.41,0,0,1,155.92,45.7Z"/><path d="M168.69,63.89a8.49,8.49,0,0,1-6.4-2.39A9.07,9.07,0,0,1,160,54.92a10,10,0,0,1,2.14-6.76A7.4,7.4,0,0,1,168,45.7a7.24,7.24,0,0,1,5.49,2.11,8.07,8.07,0,0,1,2,5.81v2h-11.7a5.76,5.76,0,0,0,1.38,3.93,4.81,4.81,0,0,0,3.67,1.37,13.56,13.56,0,0,0,2.9-.29,15.21,15.21,0,0,0,2.88-1v3a11.41,11.41,0,0,1-2.76.92A16.94,16.94,0,0,1,168.69,63.89ZM168,48.53a3.75,3.75,0,0,0-2.85,1.13,5.36,5.36,0,0,0-1.28,3.29h8a4.86,4.86,0,0,0-1-3.29A3.58,3.58,0,0,0,168,48.53Z"/><path d="M190.74,63.57,190,61.13h-.13a7.18,7.18,0,0,1-2.55,2.18,8.09,8.09,0,0,1-3.3.58,5.59,5.59,0,0,1-4-1.4,5.22,5.22,0,0,1-1.45-4,4.64,4.64,0,0,1,2-4.09,11.63,11.63,0,0,1,6.14-1.51l3-.09v-.94a3.55,3.55,0,0,0-.79-2.52,3.2,3.2,0,0,0-2.44-.83,8.45,8.45,0,0,0-2.59.4,19.77,19.77,0,0,0-2.38.94l-1.21-2.67a13,13,0,0,1,3.13-1.13,14.41,14.41,0,0,1,3.21-.39,7.59,7.59,0,0,1,5.06,1.46,5.72,5.72,0,0,1,1.71,4.59V63.57ZM185.18,61a4.62,4.62,0,0,0,3.26-1.13,4.12,4.12,0,0,0,1.23-3.18V55.19l-2.25.1a7.7,7.7,0,0,0-3.83.88,2.68,2.68,0,0,0-1.2,2.4,2.35,2.35,0,0,0,.7,1.82A3,3,0,0,0,185.18,61Z"/><path d="M205.15,60.87a9.05,9.05,0,0,0,2.73-.43v2.81a7.56,7.56,0,0,1-1.59.45,11,11,0,0,1-2,.18q-5.3,0-5.3-5.59V48.84h-2.4V47.19l2.57-1.36,1.27-3.71h2.3V46h5v2.82h-5v9.4a2.64,2.64,0,0,0,.67,2A2.46,2.46,0,0,0,205.15,60.87Z"/><path d="M221.65,43.29a6.25,6.25,0,0,0-5.14,2.32,9.9,9.9,0,0,0-1.87,6.4q0,4.27,1.8,6.46a6.36,6.36,0,0,0,5.21,2.19,13.65,13.65,0,0,0,2.86-.29q1.38-.29,2.87-.75v3.25a17.42,17.42,0,0,1-6.19,1q-5.09,0-7.82-3.09T210.64,52A14.28,14.28,0,0,1,212,45.64a9.46,9.46,0,0,1,3.83-4.16A11.59,11.59,0,0,1,221.69,40a14.62,14.62,0,0,1,6.57,1.49l-1.37,3.16a20.62,20.62,0,0,0-2.48-1A9,9,0,0,0,221.65,43.29Z"/><path d="M240.89,45.7a8.93,8.93,0,0,1,1.86.16l-.37,3.47a7.05,7.05,0,0,0-1.65-.19,4.78,4.78,0,0,0-3.63,1.46,5.28,5.28,0,0,0-1.39,3.79v9.17H232V46h2.92l.49,3.09h.19a7,7,0,0,1,2.28-2.49A5.41,5.41,0,0,1,240.89,45.7Z"/><path d="M261.57,54.76a9.58,9.58,0,0,1-2.21,6.71,7.9,7.9,0,0,1-6.14,2.41,8.41,8.41,0,0,1-4.35-1.11,7.33,7.33,0,0,1-2.9-3.19,10.86,10.86,0,0,1-1-4.83,9.52,9.52,0,0,1,2.19-6.67,8,8,0,0,1,6.17-2.4,7.73,7.73,0,0,1,6,2.45A9.47,9.47,0,0,1,261.57,54.76Zm-12.78,0q0,6.08,4.49,6.08t4.44-6.08q0-6-4.48-6a3.82,3.82,0,0,0-3.4,1.56A7.92,7.92,0,0,0,248.79,54.76Z"/><path d="M280.25,63.57,278,55.38q-.41-1.3-1.49-6h-.14q-.92,4.29-1.46,6.08l-2.33,8.16h-4.13L263.5,46h3.81l2.24,8.65q.76,3.21,1.08,5.49h.09q.16-1.16.48-2.66t.56-2.25L274.44,46h4.09l2.59,9.24q.24.78.6,2.38a18.37,18.37,0,0,1,.42,2.49h.13a48.81,48.81,0,0,1,1.11-5.46L285.64,46h3.75l-5,17.55Z"/><path d="M298.32,63.89a6.11,6.11,0,0,1-5.13-2.38,10.7,10.7,0,0,1-1.84-6.68,10.73,10.73,0,0,1,1.86-6.72,6.17,6.17,0,0,1,5.17-2.4,6.05,6.05,0,0,1,5.27,2.56h.19a22.26,22.26,0,0,1-.27-3v-6.4h3.75v24.7H304.4l-.65-2.3h-.17A6,6,0,0,1,298.32,63.89Zm1-3a4.06,4.06,0,0,0,3.35-1.29,6.81,6.81,0,0,0,1.08-4.2v-.52q0-3.32-1.08-4.71a4,4,0,0,0-3.38-1.4,3.43,3.43,0,0,0-3,1.59,8.17,8.17,0,0,0-1.06,4.55,8,8,0,0,0,1,4.45A3.48,3.48,0,0,0,299.32,60.87Z"/><circle class="cls-1" cx="69.32" cy="69.32" r="17"/><path class="cls-2" d="M69.32,51A18.32,18.32,0,1,0,87.64,69.32,18.34,18.34,0,0,0,69.32,51Z"/><path class="cls-2" d="M32.81,18.41A14.41,14.41,0,1,0,18.41,32.81,14.42,14.42,0,0,0,32.81,18.41Z"/><path class="cls-3" d="M69.32,47A22.24,22.24,0,0,0,54,53.15L31.8,31a18.25,18.25,0,1,0-3,2.62L51.31,56.15a22.31,22.31,0,1,0,18-9.15ZM4,18.41A14.41,14.41,0,1,1,18.41,32.81,14.42,14.42,0,0,1,4,18.41ZM69.32,87.64A18.32,18.32,0,1,1,87.64,69.32,18.34,18.34,0,0,1,69.32,87.64Z"/></g></g></svg>